<svg xmlns="http://www.w3.org/2000/svg" fill="none" viewBox="-0.5 -0.5 21 21" height="21" width="21">
    <path
        d="m 10,16.666667 c -1.263875,0 -2.5242917,-0.05904 -3.78125,-0.177084 C 4.9617917,16.371542 3.7222208,16.152792 2.5,15.833333 2.2083333,14.875 1.9965292,13.913208 1.8645833,12.947917 1.7326375,11.982625 1.6666667,11 1.6666667,10 c 0,-1 0.065971,-1.982625 0.1979166,-2.9479167 C 1.9965292,6.0867917 2.2083333,5.125 2.5,4.1666667 3.5972208,3.8888875 4.763875,3.6805542 6,3.5416667 7.236125,3.4027792 8.5694583,3.3333333 10,3.3333333 c 1.430542,0 2.763875,0.069446 4,0.2083334 1.236125,0.1388875 2.402792,0.3472208 3.5,0.625 C 17.791667,5.125 18.003458,6.0867917 18.135417,7.0520833 18.267375,8.017375 18.333333,9 18.333333,10 c 0,1 -0.06946,1.982625 -0.208333,2.947917 -0.138875,0.965291 -0.347208,1.927083 -0.625,2.885416 -1.222208,0.319459 -2.461792,0.538209 -3.71875,0.65625 C 12.524292,16.607625 11.263875,16.666667 10,16.666667 Z"
        fill="#000"
        stroke-width="1"
    />
</svg>
