<svg xmlns="http://www.w3.org/2000/svg" fill="none" viewBox="-0.5 -0.5 21 21" height="21" width="21">
    <path
        d="M10 16.666666666666668C8.736125 16.666666666666668 7.475708333333334 16.607625000000002 6.218750000000001 16.489583333333336C4.9617916666666675 16.371541666666666 3.7222208333333335 16.15279166666667 2.5 15.833333333333334C2.2083333333333335 14.875000000000002 1.9965291666666667 13.913208333333333 1.8645833333333333 12.947916666666666C1.7326375000000003 11.982625 1.6666666666666667 11 1.6666666666666667 10C1.6666666666666667 9.000000000000002 1.7326375000000003 8.017375000000001 1.8645833333333333 7.052083333333334C1.9965291666666667 6.086791666666667 2.2083333333333335 5.125000000000001 2.5 4.166666666666667C3.597220833333334 3.8888875 4.763875 3.680554166666667 6 3.541666666666667C7.236125000000001 3.402779166666667 8.569458333333333 3.3333333333333335 10 3.3333333333333335C11.430541666666667 3.3333333333333335 12.763875 3.402779166666667 14.000000000000002 3.541666666666667C15.236125 3.680554166666667 16.40279166666667 3.8888875 17.5 4.166666666666667C17.791666666666668 5.125000000000001 18.003458333333334 6.086791666666667 18.135416666666668 7.052083333333334C18.267375 8.017375000000001 18.333333333333336 9.000000000000002 18.333333333333336 10C18.333333333333336 11 18.263875000000002 11.982625 18.125 12.947916666666666C17.986125 13.913208333333333 17.777791666666666 14.875000000000002 17.5 15.833333333333334C16.277791666666666 16.15279166666667 15.038208333333335 16.371541666666666 13.781250000000002 16.489583333333336C12.524291666666667 16.607625000000002 11.263875 16.666666666666668 10 16.666666666666668ZM10 15.416666666666668C11.111125 15.416666666666668 12.201375 15.371541666666667 13.270833333333334 15.28125C14.340291666666667 15.190958333333334 15.416666666666668 15.027791666666666 16.5 14.791666666666668C16.694458333333333 14.013875 16.840291666666666 13.222208333333334 16.9375 12.416666666666668C17.034708333333334 11.611125000000001 17.083333333333336 10.805541666666667 17.083333333333336 10C17.083333333333336 9.194458333333333 17.034708333333334 8.388875 16.9375 7.583333333333333C16.840291666666666 6.777791666666667 16.694458333333333 5.986125 16.5 5.208333333333334C15.541666666666666 5 14.527791666666667 4.84375 13.458333333333332 4.739583333333334C12.388875 4.635416666666667 11.236125 4.583333333333334 10 4.583333333333334C8.763875 4.583333333333334 7.611125 4.635416666666667 6.541666666666667 4.739583333333334C5.472208333333334 4.84375 4.458333333333333 5 3.5000000000000004 5.208333333333334C3.3055541666666666 5.986125 3.1597208333333335 6.777791666666667 3.0625 7.583333333333333C2.965279166666667 8.388875 2.916666666666667 9.194458333333333 2.916666666666667 10C2.916666666666667 10.805541666666667 2.965279166666667 11.611125000000001 3.0625 12.416666666666668C3.1597208333333335 13.222208333333334 3.3055541666666666 14.013875 3.5000000000000004 14.791666666666668C4.583333333333334 15.027791666666666 5.659708333333334 15.190958333333334 6.729166666666666 15.28125C7.798625 15.371541666666667 8.888875 15.416666666666668 10 15.416666666666668Z"
        fill="#000"
        stroke-width="1"
    />
</svg>
