<svg xmlns="http://www.w3.org/2000/svg" viewBox="0 0 21 21">
    <path
        d="M2.7825 1.4962499999999999C1.58221875 1.49611875 0.54140625 2.32614375 0.2743125 3.49636875L10.5 9.74623125L20.7256875 3.49636875C20.458593750000002 2.32614375 19.417781249999997 1.49611875 18.2175 1.4962499999999999ZM0.21 14.1015V4.9665L7.67405625 9.52756875ZM8.9063625 10.2813375L0.4557 15.45980625C0.881475 16.359 1.7876250000000002 16.931906249999997 2.7825 16.931250000000002H10.82930625C10.610775 16.3114875 10.499475 15.65904375 10.5 15.001875C10.4981625 13.291424999999998 11.2546875 11.668125 12.56574375 10.56943125L12.0936375 10.280025L10.5 11.253768749999999ZM20.79 11.363100000000001V4.96531875L13.32594375 9.52625625L13.76064375 9.793875C14.548406250000001 9.41180625 15.412556250000002 9.2134875 16.288125 9.21375C18.10685625 9.21375 19.72884375 10.0524375 20.79 11.363100000000001"
        fill="#000000"
        stroke-width="1"
    />
    <path
        d="M20.57645625 14.67256875C20.57645625 16.1749875 19.83436875 17.277225 18.53525625 17.277225C17.88819375 17.277225 17.24638125 16.984012500000002 17.09465625 16.443787500000003H17.03926875C16.88754375 16.978893749999997 16.3408875 17.27079375 15.733725 17.27079375C14.7433125 17.27079375 14.1143625 16.573725 14.1143625 15.426337499999999V14.7459375C14.1143625 13.66036875 14.733075 12.9451875 15.7350375 12.9451875C16.48749375 12.9451875 16.854075 13.373456249999998 16.96078125 13.755524999999999H16.99936875V13.024856250000001H18.163425V15.841743750000001C18.163425 16.191656249999998 18.39495 16.381968750000002 18.6921 16.381968750000002C19.09726875 16.381968750000002 19.513987500000002 15.848175 19.513987500000002 14.59408125V14.44235625C19.513987500000002 12.7997625 18.29205 11.4505125 16.31896875 11.4505125H16.26751875C14.23275 11.4505125 12.871818750000001 12.82299375 12.871818750000001 14.954231250000001V15.156225C12.871818750000001 17.55770625 14.4629625 18.56990625 16.17748125 18.56990625H16.2353625C16.88754375 18.56990625 17.43800625 18.47986875 17.753137499999998 18.338381249999998V19.27865625C17.471475 19.40728125 16.92613125 19.50375 16.162125 19.50375H16.105425C13.635825 19.50375 11.78625 17.985975 11.78625 15.18969375V14.9144625C11.78625 12.249300000000002 13.6140375 10.5 16.26883125 10.5H16.313850000000002C19.040699999999998 10.5 20.57645625 12.339337500000001 20.57645625 14.40245625ZM15.38000625 14.94268125V15.2347125C15.38000625 15.98848125 15.6720375 16.2637125 16.127343749999998 16.2637125C16.52608125 16.2637125 16.8527625 16.04505 16.8527625 15.30795V14.835975C16.8527625 14.17224375 16.499043750000002 13.92523125 16.11710625 13.92523125C15.6720375 13.92523125 15.38000625 14.2403625 15.38000625 14.94268125"
        fill="#000000"
        stroke-width="1"
    />
</svg>
