<svg xmlns="http://www.w3.org/2000/svg" fill="none" viewBox="-0.5 -0.5 21 21" height="21" width="21">
    <path
        d="M9.996666666666668 1.07a9.155000000000001 9.155000000000001 0 0 0 -2.8933333333333335 17.843333333333334c0.4566666666666667 0.07916666666666668 0.6016666666666667 -0.18916666666666668 0.6016666666666667 -0.43083333333333335 0 -0.21916666666666668 0.005 -0.8258333333333333 0 -1.5916666666666666 -2.5475 0.5516666666666667 -3.0733333333333337 -1.2066666666666668 -3.0733333333333337 -1.2066666666666668a2.4225000000000003 2.4225000000000003 0 0 0 -1.0166666666666666 -1.3391666666666666c-0.8308333333333333 -0.5683333333333334 0.0625 -0.5575000000000001 0.0625 -0.5575000000000001a1.9225 1.9225 0 0 1 1.4025 0.9425 1.95 1.95 0 0 0 2.664166666666667 0.7616666666666667 1.95 1.95 0 0 1 0.5808333333333333 -1.22c-2.0325 -0.23250000000000004 -4.17 -1.0166666666666666 -4.17 -4.526666666666667a3.5400000000000005 3.5400000000000005 0 0 1 0.9433333333333332 -2.4566666666666666 3.285 3.285 0 0 1 0.08916666666666667 -2.4225000000000003s0.77 -0.24583333333333332 2.5166666666666666 0.94a8.668333333333333 8.668333333333333 0 0 1 4.585833333333333 0c1.7516666666666667 -1.185 2.515 -0.94 2.515 -0.94 0.3375 0.7666666666666667 0.37 1.6333333333333333 0.09083333333333334 2.4225000000000003a3.5358333333333336 3.5358333333333336 0 0 1 0.9416666666666667 2.4583333333333335c0 3.5191666666666666 -2.1408333333333336 4.291666666666667 -4.180000000000001 4.516666666666667a2.1700000000000004 2.1700000000000004 0 0 1 0.6266666666666667 1.6883333333333332v2.5341666666666667c0 0.245 0.1475 0.5158333333333334 0.6125 0.4266666666666667a9.155000000000001 9.155000000000001 0 0 0 -2.9 -17.8425Z"
        stroke-width="1"
        fill="#000000"
    />
</svg>
