<svg xmlns="http://www.w3.org/2000/svg" fill="none" viewBox="-0.5 -0.5 21 21" height="21" width="21">
    <path
        d="M10.916666666666666 19.166666666666668C9.75 19.166666666666668 8.65625 18.944458333333337 7.635416666666667 18.5C6.614583333333334 18.055541666666667 5.725708333333333 17.454875 4.968750000000001 16.697916666666668C4.211791666666667 15.940958333333333 3.6111125 15.052083333333334 3.1666666666666665 14.03125C2.7222208333333335 13.010416666666668 2.5 11.916666666666668 2.5 10.75C2.5 8.722208333333333 3.1458333333333335 6.934041666666667 4.4375 5.385416666666667C5.729166666666667 3.836804166666667 7.375 2.8750000000000004 9.375 2.5C9.125 3.8611125 9.201375 5.198833333333334 9.604166666666668 6.5131250000000005C10.006958333333333 7.827583333333334 10.701375 8.978541666666667 11.6875 9.966041666666667C12.673625 10.953541666666666 13.822916666666666 11.648958333333333 15.135416666666668 12.052291666666667C16.447916666666668 12.455625 17.791666666666668 12.532166666666667 19.166666666666668 12.281875000000001C18.805541666666667 14.284666666666668 17.847208333333334 15.932833333333333 16.291666666666668 17.226458333333333C14.736125000000001 18.519916666666667 12.944458333333333 19.166666666666668 10.916666666666666 19.166666666666668ZM10.916666666666666 17.916666666666668C12.305541666666667 17.916666666666668 13.569458333333333 17.520833333333332 14.708333333333332 16.729166666666668C15.847208333333333 15.9375 16.763875000000002 14.930541666666668 17.458333333333332 13.708333333333334C16.208333333333332 13.597208333333333 15.006958333333333 13.309041666666667 13.854166666666668 12.84375C12.701375 12.378458333333334 11.684041666666667 11.708333333333334 10.802083333333334 10.833333333333334C9.920125 9.958333333333334 9.25 8.947916666666668 8.791666666666668 7.802083333333334C8.333333333333334 6.65625 8.048625000000001 5.465291666666666 7.937500000000001 4.229166666666667C6.715291666666667 4.895833333333334 5.711791666666667 5.802083333333334 4.927083333333333 6.947916666666667C4.1423625 8.09375 3.75 9.361125 3.75 10.75C3.75 12.740708333333334 4.446750000000001 14.432833333333335 5.840208333333334 15.826458333333333C7.233833333333334 17.21991666666667 8.925958333333334 17.916666666666668 10.916666666666666 17.916666666666668Z"
        fill="#000000"
        stroke-width="1"
    />
</svg>