<svg xmlns="http://www.w3.org/2000/svg" viewBox="0 0 21 21" height="21" width="21">
    <path
        d="M7.248937499999999 16.3065q0.275625 -0.16275 0.6024375000000001 -0.31237499999999996a10.5 10.5 0 0 1 -0.5906250000000001 0.7953749999999999c-0.36750000000000005 0.44231250000000005 -0.653625 0.67725 -0.8334375 0.7507499999999999l-0.045937500000000006 0.01575a0.39375 0.39375 0 0 1 -0.034124999999999996 -0.057749999999999996c-0.0735 -0.144375 -0.070875 -0.2835 0.0525 -0.4725 0.139125 -0.21656250000000002 0.4186875 -0.46462499999999995 0.8491875 -0.7192500000000001m3.2221875 -2.1616875q-0.233625 0.048562499999999995 -0.46725 0.102375a27.5625 27.5625 0 0 0 0.65625 -1.378125 15.75 15.75 0 0 0 0.669375 1.126125q-0.427875 0.063 -0.858375 0.149625m3.3140625 1.2324374999999999a5.25 5.25 0 0 1 -0.5709375 -0.538125q0.45149999999999996 0.0091875 0.80325 0.070875c0.4160625 0.0748125 0.6116250000000001 0.19293749999999998 0.679875 0.2743125a0.13125 0.13125 0 0 1 0.034124999999999996 0.084 0.5775 0.5775 0 0 1 -0.07875 0.2625 0.39375 0.39375 0 0 1 -0.123375 0.16275 0.13125 0.13125 0 0 1 -0.0905625 0.0196875c-0.118125 -0.0039375 -0.338625 -0.08662500000000001 -0.653625 -0.336M10.864875000000001 9.148125c-0.0525 0.32025 -0.14175 0.6877500000000001 -0.2625 1.0880625a6.5625 6.5625 0 0 1 -0.1168125 -0.45412499999999995c-0.09974999999999999 -0.46331249999999996 -0.1141875 -0.826875 -0.060375 -1.078875 0.049874999999999996 -0.23231249999999998 0.144375 -0.3255 0.25725000000000003 -0.3714375a0.65625 0.65625 0 0 1 0.1903125 -0.0525c0.017062499999999998 0.039375 0.03675 0.12075 0.042 0.259875q0.0105 0.2401875 -0.049874999999999996 0.6103125z"
        fill="#000000"
        fill-rule="evenodd"
        stroke-width="1"
    />
    <path fill-rule="evenodd"
        d="M5.25 0h6.9470625A1.3125 1.3125 0 0 1 13.125 0.3845625L17.990437500000002 5.25a1.3125 1.3125 0 0 1 0.3845625 0.9279375V18.375a2.625 2.625 0 0 1 -2.625 2.625H5.25a2.625 2.625 0 0 1 -2.625 -2.625V2.625a2.625 2.625 0 0 1 2.625 -2.625m7.21875 1.96875v2.625a1.3125 1.3125 0 0 0 1.3125 1.3125h2.625zM5.4665625 17.939249999999998c0.118125 0.23625 0.301875 0.4501875 0.574875 0.5499375 0.27168749999999997 0.0984375 0.54075 0.0525 0.76125 -0.039375 0.417375 -0.170625 0.8334375 -0.57225 1.215375 -1.031625 0.4370625 -0.5263125000000001 0.8964375000000001 -1.2166875000000001 1.3400625 -1.981875a15.35625 15.35625 0 0 1 2.6210625000000003 -0.532875c0.39375 0.5026875 0.800625 0.9358124999999999 1.194375 1.246875 0.36750000000000005 0.28875 0.7914375 0.5289375000000001 1.225875 0.5473125a1.12875 1.12875 0 0 0 0.669375 -0.181125c0.2034375 -0.1325625 0.354375 -0.3241875 0.46462499999999995 -0.5459999999999999 0.118125 -0.23756249999999998 0.1903125 -0.485625 0.181125 -0.7389374999999999a1.1025 1.1025 0 0 0 -0.2625 -0.679875c-0.296625 -0.354375 -0.78225 -0.525 -1.26 -0.6103125a7.6125 7.6125 0 0 0 -1.7521875 -0.065625 14.4375 14.4375 0 0 1 -1.28625 -2.212875c0.328125 -0.8662500000000001 0.5735625 -1.6852500000000001 0.6825 -2.354625 0.04724999999999999 -0.286125 0.0721875 -0.559125 0.063 -0.805875a1.6275 1.6275 0 0 0 -0.1666875 -0.706125 0.91875 0.91875 0 0 0 -0.6260625 -0.4790625c-0.265125 -0.056437499999999995 -0.538125 0 -0.7888124999999999 0.1010625 -0.4948125 0.196875 -0.7559999999999999 0.616875 -0.8544375000000001 1.0801874999999999 -0.0958125 0.44625000000000004 -0.0525 0.966 0.060375 1.4909999999999999 0.11549999999999999 0.532875 0.31237499999999996 1.113 0.564375 1.6996875a26.25 26.25 0 0 1 -1.393875 2.9229374999999997 10.106250000000001 10.106250000000001 0 0 0 -1.945125 0.8465625c-0.485625 0.28875 -0.9174374999999999 0.63 -1.1773125 1.0329375 -0.275625 0.427875 -0.3609375 0.937125 -0.105 1.4476875"
        fill="#000000"
        stroke-width="1"
    />
</svg>
