<svg xmlns="http://www.w3.org/2000/svg" fill="none" viewBox="-0.5 -0.5 21 21" height="21" width="21">
    <path
        d="M19.8 11.239583333333334C19.8 12.732666666666667 18.589583333333334 13.943083333333334 17.09658333333333 13.943083333333334H10.337916666666667C10.089083333333333 13.943083333333334 9.887333333333334 13.741333333333333 9.887333333333334 13.4925V6.7564166666666665C9.884666666666666 6.605833333333333 9.962250000000001 6.465083333333333 10.091 6.386916666666667C12.369583333333335 5.053833333333334 15.29416666666667 6.2175 16.034083333333335 8.751583333333333C17.818583333333336 7.988916666666667 19.8015 9.299 19.8 11.239583333333334ZM8.085083333333333 6.508583333333333C8.458333333333334 6.508583333333333 8.760916666666667 6.811166666666668 8.760916666666667 7.1844166666666665V13.4925C8.760916666666667 14.01275 8.197666666666667 14.337916666666668 7.747083333333333 14.077833333333334C7.538 13.957083333333333 7.409166666666667 13.733916666666666 7.409166666666667 13.4925V7.1844166666666665C7.409166666666667 6.811166666666668 7.711749999999999 6.508583333333333 8.085083333333333 6.508583333333333ZM3.2792499999999998 8.310916666666667C3.6525000000000003 8.310916666666667 3.9550833333333335 8.6135 3.9550833333333335 8.98675V13.4925C3.9550833333333335 14.01275 3.3918333333333335 14.337916666666668 2.94125 14.077833333333334C2.7321666666666666 13.957083333333333 2.6033333333333335 13.734 2.6033333333333335 13.4925V8.98675C2.6033333333333335 8.6135 2.906 8.310916666666667 3.2792499999999998 8.310916666666667ZM5.681666666666667 9.212C6.054916666666667 9.212 6.357583333333333 9.514666666666667 6.357583333333333 9.887916666666667V13.4925C6.357583333333333 14.01275 5.794333333333333 14.337916666666668 5.34375 14.077833333333334C5.134666666666667 13.957083333333333 5.005833333333333 13.734 5.005833333333333 13.4925V9.887916666666667C5.005833333333333 9.514666666666667 5.308416666666667 9.212083333333334 5.681666666666667 9.212ZM1.5517500000000002 10.3385C1.5517500000000002 9.818166666666668 0.9884999999999999 9.493 0.5379166666666667 9.753166666666667C0.32883333333333337 9.873916666666666 0.2 10.097000000000001 0.2 10.3385V12.591333333333335C0.2 13.111666666666666 0.7632500000000001 13.436833333333333 1.2137499999999999 13.176666666666666C1.4229166666666668 13.055916666666667 1.5517500000000002 12.832833333333333 1.5517500000000002 12.591333333333335V10.3385Z"
        clip-rule="evenodd"
        fill="#000000"
        fill-rule="evenodd"
        stroke-width="1"
    />
</svg>
