<svg xmlns="http://www.w3.org/2000/svg" fill="none" viewBox="-0.5 -0.5 21 21" height="21" width="21">
    <path
        d="M10 19.166666666666668c5.0625 0 9.166666666666668 -4.104166666666667 9.166666666666668 -9.166666666666668S15.0625 0.8333333333333334 10 0.8333333333333334 0.8333333333333334 4.9375 0.8333333333333334 10s4.104166666666667 9.166666666666668 9.166666666666668 9.166666666666668ZM4.9941666666666675 7.632500000000001c0.9916666666666667 -0.26416666666666666 2.73 -0.5408333333333334 4.6416666666666675 -0.48166666666666663 1.9166666666666665 0.059166666666666666 3.9250000000000003 0.4541666666666667 5.5225 1.4566666666666668a0.8333333333333334 0.8333333333333334 0 0 0 0.8858333333333334 -1.4125c-1.9441666666666668 -1.2191666666666667 -4.281666666666667 -1.6458333333333335 -6.356666666666667 -1.7100000000000002 -2.081666666666667 -0.06416666666666666 -3.9816666666666665 0.23333333333333336 -5.121666666666667 0.5366666666666667a0.8333333333333334 0.8333333333333334 0 1 0 0.42833333333333334 1.6108333333333333Zm4.196666666666666 2.841666666666667c-1.5725 -0.05500000000000001 -2.9583333333333335 0.19166666666666668 -3.724166666666667 0.42333333333333334a0.8333333333333334 0.8333333333333334 0 0 1 -0.48333333333333334 -1.595c0.9391666666666667 -0.2841666666666667 2.5083333333333333 -0.5558333333333334 4.266666666666667 -0.49333333333333335 1.7600000000000002 0.0625 3.7725000000000004 0.4616666666666667 5.54 1.5825a0.8333333333333334 0.8333333333333334 0 1 1 -0.8916666666666667 1.4083333333333334c-1.44 -0.9133333333333334 -3.1350000000000002 -1.2691666666666666 -4.7075000000000005 -1.3250000000000002Zm-3.475 3.418333333333334c0.7666666666666667 -0.19166666666666668 2.0900000000000003 -0.3841666666666667 3.489166666666667 -0.3166666666666667 1.4116666666666666 0.06833333333333334 2.7883333333333336 0.39666666666666667 3.77 1.1416666666666668a0.8333333333333334 0.8333333333333334 0 0 0 1.0083333333333333 -1.3275000000000001c-1.3666666666666667 -1.0366666666666666 -3.1333333333333333 -1.4033333333333333 -4.698333333333333 -1.4791666666666667 -1.5775000000000001 -0.07583333333333334 -3.064166666666667 0.1375 -3.973333333333333 0.365a0.8333333333333334 0.8333333333333334 0 1 0 0.4041666666666667 1.6166666666666667Z"
        clip-rule="evenodd"
        fill="#000000"
        fill-rule="evenodd"
        stroke-width="1"
    />
</svg>
