<svg xmlns="http://www.w3.org/2000/svg" fill="none" viewBox="-0.5 -0.5 21 21" height="21" width="21">
    <path
        d="M9.375 3.125V0.8333333333333334H10.625V3.125H9.375ZM9.375 19.166666666666668V16.875H10.625V19.166666666666668H9.375ZM16.875 10.625V9.375H19.166666666666668V10.625H16.875ZM0.8333333333333334 10.625V9.375H3.125V10.625H0.8333333333333334ZM15.458333333333334 5.416666666666667L14.562500000000002 4.520833333333333L15.9375 3.1458333333333335L16.833333333333332 4.041666666666667L15.458333333333334 5.416666666666667ZM4.0625 16.854166666666668L3.1666666666666665 15.958333333333332L4.541666666666667 14.583333333333334L5.437500000000001 15.479166666666666L4.0625 16.854166666666668ZM15.9375 16.854166666666668L14.562500000000002 15.479166666666666L15.458333333333334 14.583333333333334L16.833333333333332 15.958333333333332L15.9375 16.854166666666668ZM4.541666666666667 5.416666666666667L3.1666666666666665 4.041666666666667L4.0625 3.1458333333333335L5.437500000000001 4.520833333333333L4.541666666666667 5.416666666666667ZM9.99625 14.6875C8.693208333333335 14.6875 7.5867916666666675 14.231375 6.677083333333333 13.319166666666668C5.767375 12.407083333333334 5.3125 11.299458333333334 5.3125 9.99625C5.3125 8.693208333333335 5.768625 7.5867916666666675 6.680833333333333 6.677083333333333C7.5929166666666665 5.767375 8.700541666666666 5.3125 10.00375 5.3125C11.306791666666667 5.3125 12.413208333333333 5.768625 13.322916666666668 6.680833333333333C14.232624999999999 7.5929166666666665 14.6875 8.700541666666666 14.6875 10.00375C14.6875 11.306791666666667 14.231375 12.413208333333333 13.319166666666668 13.322916666666668C12.407083333333334 14.232624999999999 11.299458333333334 14.6875 9.99625 14.6875ZM9.998541666666668 13.4375C10.957833333333333 13.4375 11.770833333333334 13.104666666666667 12.437500000000002 12.438958333333334C13.104166666666666 11.773125 13.4375 10.960625 13.4375 10.001458333333334C13.4375 9.042166666666667 13.104666666666667 8.229166666666668 12.438958333333334 7.5625C11.773125 6.895833333333334 10.960625 6.5625 10.001458333333334 6.5625C9.042166666666667 6.5625 8.229166666666668 6.895333333333333 7.5625 7.561041666666667C6.895833333333334 8.226875 6.5625 9.039375000000001 6.5625 9.998541666666668C6.5625 10.957833333333333 6.895333333333333 11.770833333333334 7.561041666666667 12.437500000000002C8.226875 13.104166666666666 9.039375000000001 13.4375 9.998541666666668 13.4375Z"
            fill="#000000"
            stroke-width="1"
        />
</svg>