<svg version="1.1" xmlns="http://www.w3.org/2000/svg" width="400" height="400" viewBox="0, 0, 400, 400">
    <g>
        <path
            d="M191.564 20.555 C 191.434 20.693,187.245 20.986,182.256 21.206 C 175.483 21.505,172.452 21.806,170.293 22.393 C 168.702 22.826,165.600 23.350,163.400 23.558 C 161.200 23.767,158.748 24.214,157.951 24.553 C 157.153 24.891,155.339 25.354,153.918 25.581 C 152.498 25.808,150.769 26.276,150.076 26.622 C 149.383 26.968,147.606 27.439,146.127 27.669 C 144.648 27.899,143.067 28.331,142.614 28.628 C 142.160 28.925,140.802 29.379,139.595 29.637 C 138.388 29.894,136.990 30.427,136.488 30.819 C 135.987 31.212,134.887 31.650,134.045 31.792 C 133.203 31.935,131.648 32.490,130.589 33.026 C 129.531 33.561,128.290 34.006,127.832 34.012 C 127.374 34.019,126.280 34.468,125.400 35.010 C 124.520 35.552,123.509 35.997,123.154 35.998 C 122.799 35.999,122.079 36.334,121.554 36.743 C 121.029 37.152,119.880 37.736,119.000 38.041 C 118.120 38.346,117.274 38.790,117.120 39.027 C 116.965 39.265,116.065 39.702,115.120 40.000 C 114.174 40.297,113.031 40.866,112.581 41.264 C 112.130 41.662,111.170 42.106,110.446 42.251 C 109.723 42.395,109.037 42.758,108.923 43.057 C 108.808 43.356,107.969 43.931,107.057 44.335 C 106.146 44.739,105.153 45.369,104.851 45.735 C 104.549 46.101,103.992 46.400,103.613 46.400 C 103.234 46.400,102.613 46.744,102.233 47.163 C 101.853 47.583,100.970 48.159,100.271 48.443 C 99.572 48.727,98.765 49.284,98.477 49.680 C 98.190 50.076,97.727 50.400,97.449 50.400 C 97.170 50.400,96.235 50.935,95.371 51.589 C 94.507 52.243,93.639 52.783,93.442 52.789 C 93.245 52.795,92.705 53.177,92.242 53.637 C 91.064 54.809,85.460 59.176,85.118 59.189 C 84.854 59.199,83.720 60.149,81.758 62.004 C 81.295 62.442,80.809 62.800,80.677 62.800 C 80.085 62.800,65.835 76.757,62.976 80.136 C 61.889 81.421,60.070 83.491,58.934 84.736 C 57.798 85.981,56.493 87.411,56.034 87.914 C 55.575 88.417,55.200 88.985,55.200 89.176 C 55.200 89.525,53.184 92.200,51.629 93.914 C 51.173 94.417,50.800 94.971,50.800 95.145 C 50.800 95.319,49.810 96.752,48.600 98.329 C 47.390 99.906,46.400 101.377,46.400 101.598 C 46.400 101.819,46.085 102.316,45.700 102.703 C 45.315 103.090,44.658 104.170,44.239 105.103 C 43.821 106.036,43.334 106.800,43.158 106.800 C 42.982 106.800,42.460 107.565,41.999 108.500 C 40.746 111.039,39.743 112.775,39.094 113.528 C 38.774 113.897,38.306 114.818,38.052 115.574 C 37.798 116.330,37.345 117.230,37.046 117.574 C 36.746 117.918,36.272 118.920,35.992 119.800 C 35.713 120.680,35.150 121.829,34.742 122.354 C 34.334 122.879,34.000 123.618,34.000 123.998 C 34.000 124.378,33.569 125.324,33.041 126.101 C 32.514 126.878,31.961 128.065,31.814 128.738 C 31.666 129.412,31.212 130.385,30.805 130.902 C 30.399 131.420,29.933 132.551,29.770 133.418 C 29.608 134.284,29.053 135.787,28.537 136.756 C 28.022 137.726,27.598 138.897,27.596 139.360 C 27.594 139.822,27.150 141.100,26.609 142.200 C 26.068 143.300,25.619 144.657,25.613 145.215 C 25.606 145.774,25.235 146.944,24.790 147.815 C 24.344 148.687,23.784 150.660,23.544 152.200 C 23.304 153.740,22.787 155.817,22.394 156.815 C 22.000 157.813,21.550 159.703,21.393 161.015 C 21.236 162.327,20.784 164.210,20.389 165.200 C 19.942 166.322,19.513 169.050,19.250 172.445 C 19.008 175.566,18.529 178.725,18.127 179.845 C 17.087 182.747,17.120 218.412,18.165 221.200 C 18.536 222.190,19.023 224.980,19.247 227.400 C 19.472 229.820,19.997 232.970,20.415 234.400 C 20.832 235.830,21.295 238.068,21.443 239.374 C 21.590 240.680,22.034 242.480,22.429 243.374 C 22.824 244.268,23.274 245.990,23.429 247.200 C 23.583 248.410,24.019 250.030,24.396 250.800 C 24.774 251.570,25.305 253.370,25.577 254.800 C 25.849 256.230,26.315 257.673,26.613 258.006 C 26.911 258.340,27.342 259.451,27.572 260.474 C 27.801 261.498,28.338 262.935,28.765 263.668 C 29.192 264.400,29.672 265.715,29.832 266.590 C 29.992 267.464,30.352 268.410,30.633 268.690 C 30.914 268.971,31.424 270.167,31.768 271.348 C 32.111 272.529,32.652 273.711,32.970 273.975 C 33.288 274.239,33.663 274.974,33.802 275.609 C 33.941 276.243,34.377 277.176,34.769 277.681 C 35.162 278.187,35.712 279.320,35.991 280.200 C 36.270 281.080,36.817 282.160,37.206 282.600 C 37.595 283.040,38.033 283.966,38.179 284.659 C 38.326 285.351,38.785 286.224,39.200 286.600 C 39.615 286.976,40.069 287.804,40.209 288.441 C 40.349 289.079,40.639 289.600,40.854 289.600 C 41.069 289.600,41.603 290.410,42.041 291.400 C 42.479 292.390,43.001 293.200,43.200 293.200 C 43.399 293.200,43.902 293.965,44.316 294.900 C 44.731 295.835,45.369 296.847,45.735 297.149 C 46.101 297.451,46.400 298.014,46.400 298.400 C 46.400 298.786,46.683 299.337,47.029 299.624 C 47.375 299.911,48.013 300.842,48.447 301.693 C 48.881 302.543,49.491 303.337,49.803 303.456 C 50.115 303.576,50.480 304.023,50.616 304.450 C 50.751 304.877,51.278 305.690,51.786 306.258 C 53.673 308.369,54.084 308.897,54.851 310.197 C 55.283 310.929,55.899 311.629,56.218 311.752 C 56.538 311.874,56.800 312.224,56.800 312.528 C 56.800 313.127,57.076 313.452,62.851 319.660 C 64.969 321.937,67.394 324.610,68.239 325.600 C 69.084 326.590,71.202 328.660,72.945 330.200 C 74.689 331.740,76.687 333.540,77.386 334.200 C 78.636 335.381,82.041 338.372,84.000 340.011 C 85.850 341.558,90.794 345.200,91.046 345.200 C 91.182 345.200,91.897 345.695,92.632 346.300 C 95.078 348.310,96.272 349.159,97.341 349.646 C 97.924 349.911,98.400 350.271,98.400 350.445 C 98.400 350.620,99.165 351.102,100.100 351.516 C 101.035 351.931,102.047 352.569,102.349 352.935 C 102.651 353.301,103.214 353.600,103.600 353.600 C 103.986 353.600,104.547 353.895,104.845 354.255 C 105.144 354.615,106.136 355.230,107.050 355.622 C 107.964 356.013,108.829 356.524,108.973 356.756 C 109.116 356.987,110.036 357.532,111.017 357.966 C 111.997 358.400,112.800 358.925,112.800 359.133 C 112.800 359.341,113.412 359.626,114.159 359.766 C 114.907 359.906,115.942 360.353,116.459 360.758 C 116.977 361.164,117.977 361.622,118.681 361.776 C 119.386 361.929,120.376 362.377,120.881 362.769 C 121.387 363.162,122.520 363.716,123.400 364.000 C 124.280 364.284,125.429 364.850,125.954 365.258 C 126.479 365.666,127.213 366.000,127.586 366.000 C 127.959 366.000,129.143 366.445,130.216 366.988 C 131.290 367.532,132.942 368.092,133.889 368.234 C 134.835 368.376,136.012 368.798,136.505 369.171 C 136.997 369.544,138.382 370.069,139.582 370.337 C 140.781 370.604,142.044 371.078,142.388 371.389 C 142.732 371.700,144.180 372.142,145.607 372.371 C 147.033 372.599,149.231 373.150,150.490 373.593 C 151.750 374.037,153.339 374.400,154.023 374.400 C 154.706 374.400,156.556 374.833,158.133 375.363 C 159.710 375.892,162.350 376.442,164.000 376.584 C 165.650 376.727,168.474 377.188,170.275 377.608 C 172.490 378.125,176.375 378.504,182.275 378.779 C 187.074 379.002,192.397 379.297,194.104 379.434 C 202.194 380.085,207.827 375.204,204.605 370.335 C 204.052 369.500,203.600 368.642,203.600 368.429 C 203.600 368.216,202.475 367.511,201.100 366.864 L 198.600 365.687 187.000 365.269 C 178.341 364.957,174.893 364.687,173.400 364.204 C 172.300 363.849,169.560 363.398,167.312 363.203 C 164.836 362.988,162.529 362.541,161.463 362.069 C 160.495 361.641,158.555 361.160,157.151 361.001 C 155.748 360.842,153.970 360.441,153.200 360.111 C 152.430 359.781,150.559 359.264,149.041 358.964 C 147.524 358.663,145.994 358.164,145.641 357.854 C 145.289 357.544,144.060 357.093,142.911 356.852 C 141.762 356.610,140.144 356.050,139.317 355.607 C 138.489 355.163,137.431 354.800,136.965 354.800 C 136.500 354.800,135.273 354.350,134.238 353.800 C 133.204 353.250,132.122 352.800,131.835 352.800 C 131.547 352.800,130.676 352.369,129.899 351.841 C 129.122 351.314,127.935 350.761,127.262 350.614 C 126.588 350.466,125.621 350.017,125.112 349.617 C 124.604 349.217,123.518 348.705,122.700 348.479 C 121.882 348.253,120.735 347.693,120.152 347.234 C 119.569 346.775,118.871 346.400,118.600 346.400 C 118.329 346.400,117.601 346.001,116.981 345.513 C 115.729 344.528,114.255 343.661,111.676 342.391 C 110.728 341.924,109.862 341.305,109.751 341.016 C 109.640 340.726,109.038 340.388,108.414 340.263 C 107.791 340.138,106.786 339.578,106.182 339.018 C 105.577 338.458,104.841 338.000,104.545 338.000 C 104.249 338.000,103.782 337.640,103.507 337.200 C 103.232 336.760,102.798 336.400,102.542 336.400 C 102.099 336.400,99.630 334.589,97.718 332.862 C 97.233 332.424,96.468 331.949,96.018 331.806 C 95.568 331.663,95.013 331.198,94.786 330.773 C 94.558 330.348,94.184 330.000,93.954 330.000 C 93.597 330.000,92.396 329.015,86.987 324.286 C 86.554 323.908,85.229 322.691,84.042 321.582 C 82.856 320.474,81.551 319.388,81.142 319.169 C 80.734 318.951,80.400 318.520,80.400 318.213 C 80.400 317.905,80.040 317.540,79.600 317.400 C 79.160 317.260,78.800 316.974,78.800 316.764 C 78.800 316.554,77.810 315.423,76.600 314.251 C 75.390 313.079,74.400 312.034,74.400 311.928 C 74.400 311.823,73.050 310.319,71.400 308.587 C 69.750 306.854,68.400 305.311,68.400 305.156 C 68.400 304.843,66.038 301.843,64.801 300.586 C 64.360 300.138,64.000 299.563,64.000 299.309 C 64.000 299.054,63.653 298.602,63.229 298.305 C 62.805 298.008,62.236 297.278,61.965 296.683 C 61.694 296.087,61.349 295.600,61.199 295.600 C 61.049 295.600,60.583 294.925,60.163 294.100 C 59.743 293.275,59.085 292.365,58.700 292.077 C 58.315 291.790,58.000 291.320,58.000 291.032 C 58.000 290.745,57.460 289.831,56.800 289.000 C 56.140 288.169,55.600 287.267,55.600 286.994 C 55.600 286.721,55.301 286.251,54.935 285.949 C 54.569 285.647,53.931 284.635,53.516 283.700 C 53.102 282.765,52.605 282.000,52.412 282.000 C 52.220 282.000,51.845 281.325,51.580 280.500 C 51.316 279.675,50.854 278.718,50.554 278.374 C 50.255 278.030,49.802 277.130,49.548 276.374 C 49.294 275.618,48.847 274.721,48.554 274.380 C 48.261 274.039,47.750 272.993,47.419 272.054 C 47.088 271.116,46.453 269.885,46.009 269.320 C 45.564 268.755,45.194 268.001,45.188 267.646 C 45.181 267.291,44.732 266.280,44.190 265.400 C 43.648 264.520,43.203 263.439,43.202 262.997 C 43.201 262.555,42.774 261.385,42.254 260.397 C 41.734 259.409,41.179 257.880,41.021 257.000 C 40.862 256.120,40.474 255.112,40.158 254.759 C 39.842 254.407,39.336 252.967,39.035 251.559 C 38.734 250.152,38.206 248.472,37.863 247.827 C 37.520 247.182,37.117 245.652,36.968 244.427 C 36.819 243.202,36.355 241.521,35.936 240.692 C 35.518 239.863,34.994 237.703,34.772 235.892 C 34.550 234.081,34.101 231.880,33.775 231.000 C 33.448 230.120,32.921 226.970,32.604 224.000 C 32.287 221.030,31.809 217.700,31.541 216.600 C 30.714 213.200,30.817 185.095,31.665 182.800 C 32.038 181.792,32.535 178.457,32.797 175.219 C 33.053 172.040,33.506 168.969,33.802 168.396 C 34.098 167.823,34.547 165.847,34.799 164.004 C 35.052 162.162,35.580 160.012,35.973 159.227 C 36.366 158.442,36.792 156.753,36.918 155.473 C 37.044 154.192,37.497 152.475,37.924 151.657 C 38.350 150.838,38.823 149.545,38.975 148.784 C 39.347 146.914,40.030 145.200,40.403 145.200 C 40.571 145.200,40.833 144.345,40.985 143.300 C 41.137 142.255,41.599 140.820,42.011 140.112 C 42.422 139.403,42.879 138.186,43.025 137.408 C 43.171 136.630,43.604 135.590,43.987 135.097 C 44.370 134.603,44.913 133.480,45.192 132.600 C 45.472 131.720,45.957 130.706,46.270 130.347 C 46.582 129.988,47.027 128.998,47.258 128.147 C 47.488 127.296,48.000 126.240,48.395 125.800 C 48.790 125.360,49.235 124.427,49.383 123.728 C 49.530 123.028,49.912 122.239,50.230 121.975 C 50.549 121.711,51.157 120.708,51.582 119.747 C 52.007 118.786,52.509 118.000,52.697 118.000 C 52.885 118.000,53.279 117.325,53.571 116.500 C 53.864 115.675,54.440 114.678,54.852 114.284 C 55.263 113.891,55.600 113.320,55.600 113.015 C 55.600 112.711,56.012 111.953,56.516 111.331 C 57.019 110.709,57.648 109.700,57.912 109.089 C 58.177 108.478,58.665 107.873,58.997 107.746 C 59.328 107.619,59.600 107.295,59.600 107.026 C 59.600 106.758,60.590 105.248,61.800 103.671 C 63.010 102.094,64.000 100.633,64.000 100.424 C 64.000 100.216,64.321 99.810,64.713 99.523 C 65.105 99.235,65.780 98.430,66.213 97.733 C 67.210 96.127,69.603 93.283,72.300 90.498 C 73.455 89.306,74.400 88.170,74.400 87.974 C 74.400 87.779,74.843 87.328,75.384 86.973 C 75.926 86.619,76.475 85.994,76.605 85.585 C 76.735 85.176,77.192 84.730,77.620 84.594 C 78.049 84.457,78.400 84.084,78.400 83.764 C 78.400 83.445,78.847 82.979,79.392 82.731 C 79.938 82.482,80.490 81.946,80.619 81.539 C 80.748 81.133,81.016 80.800,81.213 80.800 C 81.411 80.800,82.125 80.260,82.800 79.600 C 83.475 78.940,84.201 78.400,84.414 78.400 C 84.626 78.400,84.800 78.136,84.800 77.814 C 84.800 77.492,85.134 77.049,85.542 76.831 C 85.951 76.612,87.201 75.571,88.320 74.517 C 90.888 72.098,93.567 70.000,94.086 70.000 C 94.305 70.000,94.839 69.550,95.271 69.000 C 95.704 68.450,96.217 68.000,96.411 68.000 C 96.605 68.000,97.218 67.595,97.773 67.100 C 99.854 65.243,100.415 64.799,102.046 63.714 C 102.967 63.101,104.008 62.426,104.360 62.214 C 104.712 62.002,105.749 61.327,106.665 60.714 C 107.581 60.101,108.573 59.600,108.869 59.600 C 109.165 59.600,109.632 59.240,109.907 58.800 C 110.182 58.360,110.651 58.000,110.948 58.000 C 111.246 58.000,112.169 57.460,113.000 56.800 C 113.831 56.140,114.720 55.600,114.977 55.600 C 115.234 55.600,116.042 55.159,116.772 54.621 C 117.501 54.082,118.604 53.531,119.222 53.395 C 119.839 53.260,120.552 52.899,120.804 52.595 C 121.057 52.290,121.925 51.829,122.732 51.570 C 123.539 51.311,124.482 50.854,124.826 50.554 C 125.170 50.255,126.070 49.799,126.826 49.541 C 127.582 49.283,128.623 48.746,129.141 48.346 C 129.658 47.947,130.736 47.498,131.537 47.348 C 132.338 47.198,133.787 46.653,134.756 46.137 C 135.726 45.622,136.858 45.200,137.273 45.200 C 137.687 45.200,138.915 44.750,140.000 44.200 C 141.085 43.650,142.297 43.200,142.693 43.200 C 143.088 43.200,144.069 42.848,144.871 42.418 C 145.674 41.987,147.562 41.438,149.065 41.196 C 150.569 40.955,152.293 40.488,152.895 40.159 C 153.498 39.830,155.298 39.314,156.895 39.013 C 158.493 38.713,160.575 38.179,161.523 37.827 C 162.471 37.476,164.901 37.073,166.923 36.932 C 168.945 36.792,171.590 36.334,172.800 35.915 C 177.812 34.180,214.079 34.090,219.400 35.800 C 220.500 36.153,223.230 36.601,225.466 36.795 C 227.856 37.003,230.330 37.477,231.466 37.946 C 232.530 38.384,234.480 38.863,235.800 39.010 C 237.120 39.158,238.830 39.551,239.600 39.884 C 240.370 40.217,242.241 40.736,243.759 41.036 C 245.276 41.337,246.806 41.836,247.159 42.146 C 247.511 42.456,248.740 42.907,249.889 43.148 C 251.038 43.390,252.656 43.950,253.483 44.393 C 254.311 44.837,255.369 45.200,255.835 45.200 C 256.300 45.200,257.488 45.629,258.475 46.154 C 259.461 46.678,260.819 47.229,261.493 47.376 C 262.166 47.524,263.017 47.977,263.385 48.383 C 263.752 48.789,264.652 49.233,265.386 49.371 C 266.119 49.508,267.145 49.956,267.666 50.366 C 268.187 50.775,269.282 51.295,270.100 51.521 C 270.918 51.747,272.065 52.307,272.648 52.766 C 273.231 53.225,274.022 53.600,274.405 53.600 C 274.788 53.600,275.349 53.899,275.651 54.265 C 275.953 54.631,276.976 55.274,277.924 55.694 C 278.872 56.115,279.738 56.695,279.849 56.984 C 279.960 57.274,280.574 57.615,281.213 57.743 C 281.852 57.870,282.723 58.323,283.148 58.748 C 283.573 59.173,284.344 59.649,284.861 59.806 C 285.377 59.963,286.160 60.410,286.600 60.799 C 287.040 61.188,287.985 61.802,288.700 62.163 C 289.415 62.525,290.000 62.986,290.000 63.188 C 290.000 63.391,290.425 63.791,290.944 64.078 C 292.628 65.009,295.208 66.808,296.014 67.614 C 296.446 68.046,296.954 68.400,297.142 68.400 C 297.452 68.400,298.386 69.126,300.594 71.084 C 302.344 72.636,308.246 77.792,308.941 78.377 C 311.655 80.658,323.029 92.589,323.769 93.931 C 323.972 94.299,324.467 94.835,324.869 95.123 C 325.271 95.410,325.600 95.836,325.600 96.070 C 325.600 96.303,326.150 97.148,326.822 97.947 C 327.494 98.746,328.412 99.840,328.862 100.379 C 329.312 100.917,329.837 101.772,330.030 102.279 C 330.223 102.785,330.547 103.200,330.751 103.200 C 330.954 103.200,331.544 103.861,332.060 104.670 C 332.577 105.478,333.494 106.873,334.099 107.770 C 334.703 108.666,335.465 109.973,335.793 110.673 C 336.120 111.373,336.591 112.071,336.839 112.224 C 337.088 112.378,337.630 113.271,338.045 114.209 C 338.460 115.147,339.053 116.011,339.362 116.130 C 339.671 116.249,340.043 116.883,340.187 117.540 C 340.331 118.196,340.690 118.826,340.984 118.939 C 341.279 119.052,341.740 119.811,342.009 120.626 C 342.278 121.442,342.926 122.739,343.449 123.510 C 343.972 124.281,344.400 125.212,344.400 125.578 C 344.400 125.945,344.850 126.855,345.400 127.600 C 345.950 128.345,346.400 129.245,346.400 129.600 C 346.400 129.955,346.832 130.830,347.360 131.546 C 347.888 132.261,348.443 133.502,348.593 134.302 C 348.743 135.103,349.196 136.177,349.600 136.691 C 350.003 137.204,350.450 138.313,350.592 139.155 C 350.735 139.997,351.290 141.552,351.826 142.611 C 352.361 143.669,352.800 144.889,352.800 145.321 C 352.800 145.752,353.145 146.667,353.567 147.353 C 353.989 148.039,354.544 149.762,354.800 151.183 C 355.056 152.604,355.514 154.246,355.817 154.833 C 356.120 155.420,356.563 157.115,356.800 158.600 C 357.037 160.085,357.504 161.828,357.837 162.472 C 358.171 163.117,358.618 165.299,358.831 167.322 C 359.044 169.345,359.480 171.810,359.798 172.800 C 360.569 175.194,361.200 180.581,361.202 184.790 C 361.203 187.739,362.260 196.575,363.043 200.180 C 363.769 203.528,368.692 205.141,372.891 203.407 C 374.741 202.642,376.083 198.834,375.853 195.000 C 375.285 185.538,373.990 172.678,373.444 171.068 C 373.109 170.082,372.642 167.380,372.406 165.063 C 372.169 162.726,371.642 160.084,371.223 159.126 C 370.808 158.177,370.341 156.320,370.186 155.000 C 370.031 153.680,369.644 152.303,369.326 151.940 C 369.008 151.577,368.509 149.867,368.217 148.140 C 367.925 146.413,367.306 144.287,366.843 143.415 C 366.379 142.544,366.000 141.485,366.000 141.063 C 366.000 140.640,365.654 139.733,365.230 139.047 C 364.807 138.361,364.241 136.900,363.974 135.800 C 363.706 134.700,363.256 133.530,362.974 133.200 C 362.691 132.870,362.238 131.700,361.967 130.600 C 361.695 129.500,361.146 128.177,360.747 127.659 C 360.348 127.142,359.904 126.093,359.760 125.327 C 359.616 124.562,359.253 123.842,358.953 123.727 C 358.653 123.611,358.195 122.771,357.936 121.859 C 357.676 120.946,357.157 119.840,356.781 119.400 C 356.406 118.960,355.887 117.939,355.629 117.132 C 355.370 116.325,354.928 115.472,354.645 115.238 C 354.363 115.003,353.894 114.091,353.604 113.212 C 353.313 112.332,352.744 111.311,352.338 110.944 C 351.932 110.577,351.600 110.059,351.600 109.793 C 351.600 109.527,351.060 108.631,350.400 107.800 C 349.740 106.969,349.200 106.073,349.200 105.807 C 349.200 105.541,348.845 105.002,348.410 104.609 C 347.976 104.216,347.501 103.513,347.355 103.047 C 347.210 102.581,346.665 101.691,346.145 101.069 C 345.625 100.447,345.200 99.772,345.200 99.568 C 345.200 99.364,344.210 97.906,343.000 96.329 C 341.790 94.752,340.800 93.223,340.800 92.931 C 340.800 92.639,340.526 92.400,340.190 92.400 C 339.855 92.400,339.417 91.970,339.217 91.445 C 339.018 90.920,338.437 90.037,337.927 89.482 C 337.417 88.928,336.460 87.739,335.800 86.842 C 334.282 84.777,332.342 82.482,331.200 81.400 C 330.968 81.180,329.838 79.976,328.689 78.724 C 326.095 75.899,325.723 75.500,325.218 75.000 C 324.995 74.780,323.645 73.385,322.218 71.900 C 320.791 70.415,319.512 69.200,319.376 69.200 C 319.239 69.200,318.260 68.300,317.200 67.200 C 316.140 66.100,315.070 65.200,314.824 65.200 C 314.577 65.200,314.283 64.959,314.170 64.665 C 313.840 63.807,305.154 56.800,304.419 56.800 C 304.214 56.800,303.810 56.484,303.523 56.099 C 303.235 55.713,301.695 54.532,300.100 53.473 C 298.505 52.415,297.200 51.381,297.200 51.175 C 297.200 50.969,296.944 50.800,296.631 50.800 C 296.318 50.800,295.521 50.345,294.861 49.790 C 294.200 49.234,293.106 48.586,292.430 48.350 C 291.753 48.115,291.200 47.762,291.200 47.566 C 291.200 47.371,290.532 46.931,289.715 46.590 C 288.898 46.249,287.929 45.698,287.562 45.366 C 287.196 45.034,286.244 44.411,285.448 43.981 C 284.651 43.552,283.349 42.848,282.552 42.419 C 281.756 41.989,280.811 41.379,280.452 41.063 C 280.094 40.747,279.223 40.367,278.519 40.217 C 277.814 40.067,276.821 39.617,276.312 39.217 C 275.804 38.817,274.718 38.305,273.900 38.079 C 273.082 37.853,271.935 37.293,271.352 36.834 C 270.769 36.375,270.001 35.999,269.646 35.998 C 269.291 35.997,268.280 35.552,267.400 35.010 C 266.520 34.468,265.523 34.019,265.185 34.012 C 264.846 34.006,263.856 33.624,262.985 33.164 C 262.113 32.705,260.327 32.068,259.015 31.749 C 257.703 31.430,256.353 30.936,256.015 30.650 C 255.677 30.364,254.379 29.911,253.131 29.643 C 251.883 29.375,250.666 28.921,250.427 28.632 C 250.188 28.344,248.680 27.897,247.075 27.638 C 245.471 27.379,243.640 26.898,243.006 26.570 C 242.372 26.241,240.539 25.789,238.931 25.565 C 237.323 25.341,235.241 24.829,234.304 24.425 C 233.367 24.022,231.050 23.574,229.156 23.430 C 227.261 23.285,224.219 22.811,222.394 22.375 C 220.063 21.818,216.550 21.471,210.569 21.208 C 205.889 21.001,199.752 20.714,196.930 20.569 C 194.109 20.424,191.694 20.418,191.564 20.555 M181.398 65.201 C 177.925 65.386,175.793 65.687,174.981 66.106 C 174.312 66.452,171.883 66.946,169.583 67.203 C 167.282 67.460,164.680 67.999,163.800 68.401 C 162.920 68.803,161.210 69.257,160.000 69.409 C 158.790 69.562,157.516 69.937,157.169 70.243 C 156.822 70.549,155.472 71.011,154.169 71.270 C 152.866 71.529,151.008 72.159,150.040 72.670 C 149.073 73.182,147.930 73.600,147.502 73.600 C 147.074 73.600,146.233 73.949,145.633 74.376 C 145.034 74.803,143.656 75.374,142.572 75.646 C 141.487 75.917,140.420 76.358,140.200 76.625 C 139.980 76.893,139.080 77.335,138.200 77.609 C 137.320 77.882,136.293 78.426,135.918 78.817 C 135.542 79.209,134.642 79.659,133.918 79.818 C 133.193 79.977,132.365 80.443,132.077 80.854 C 131.790 81.264,131.232 81.600,130.838 81.600 C 130.443 81.600,129.328 82.137,128.360 82.793 C 127.392 83.449,126.446 83.989,126.258 83.993 C 126.070 83.997,125.417 84.405,124.808 84.900 C 124.199 85.395,123.102 86.160,122.370 86.600 C 120.314 87.835,119.893 88.119,118.356 89.300 C 117.569 89.905,116.749 90.400,116.534 90.400 C 116.320 90.400,115.753 90.850,115.275 91.400 C 114.797 91.950,114.146 92.400,113.830 92.400 C 113.513 92.400,113.145 92.743,113.012 93.163 C 112.879 93.583,112.476 94.039,112.116 94.177 C 110.271 94.885,97.052 107.307,94.489 110.741 C 93.890 111.544,93.085 112.435,92.700 112.723 C 92.315 113.010,92.000 113.440,92.000 113.677 C 92.000 113.914,91.595 114.524,91.100 115.033 C 89.347 116.834,86.770 120.185,85.400 122.442 C 84.960 123.168,84.400 124.092,84.156 124.496 C 83.911 124.900,83.361 125.628,82.932 126.115 C 82.503 126.602,81.940 127.500,81.680 128.111 C 81.420 128.722,80.935 129.327,80.603 129.454 C 80.272 129.581,80.000 129.999,80.000 130.383 C 80.000 130.766,79.463 131.872,78.807 132.840 C 78.151 133.808,77.611 134.853,77.607 135.162 C 77.603 135.471,77.150 136.314,76.600 137.036 C 76.050 137.757,75.600 138.604,75.600 138.919 C 75.600 139.234,75.234 139.957,74.787 140.526 C 74.340 141.094,73.722 142.395,73.415 143.417 C 73.107 144.439,72.596 145.574,72.278 145.938 C 71.961 146.302,71.584 147.257,71.440 148.059 C 71.297 148.862,70.847 149.942,70.442 150.459 C 70.037 150.977,69.495 152.383,69.239 153.584 C 68.982 154.785,68.531 156.045,68.235 156.384 C 67.940 156.723,67.500 158.149,67.259 159.554 C 67.018 160.959,66.550 162.523,66.218 163.029 C 65.886 163.535,65.423 165.265,65.189 166.874 C 64.954 168.483,64.426 170.790,64.015 172.000 C 63.603 173.210,63.061 176.294,62.810 178.852 C 62.559 181.411,62.096 184.471,61.781 185.652 C 60.830 189.226,60.969 210.597,61.978 215.800 C 62.404 218.000,62.931 221.510,63.147 223.600 C 63.364 225.690,63.806 228.030,64.129 228.800 C 64.452 229.570,64.919 231.517,65.166 233.126 C 65.413 234.735,65.882 236.459,66.208 236.957 C 66.535 237.455,66.988 238.928,67.215 240.231 C 67.442 241.534,67.960 243.230,68.365 244.000 C 68.771 244.770,69.229 246.110,69.384 246.979 C 69.539 247.847,70.013 248.999,70.438 249.539 C 70.862 250.079,71.320 251.210,71.455 252.053 C 71.590 252.895,71.949 253.792,72.254 254.045 C 72.559 254.298,73.088 255.468,73.430 256.645 C 73.772 257.822,74.236 258.898,74.459 259.037 C 74.683 259.175,75.203 260.033,75.614 260.944 C 76.026 261.855,76.621 263.050,76.938 263.600 C 77.254 264.150,77.725 265.050,77.983 265.600 C 78.526 266.754,80.280 269.787,81.300 271.337 C 83.002 273.922,83.436 274.570,84.000 275.374 C 84.330 275.844,84.960 276.824,85.400 277.552 C 86.647 279.616,88.208 281.671,91.200 285.184 C 91.750 285.830,92.650 286.933,93.200 287.636 C 96.719 292.132,104.682 300.075,109.765 304.160 C 111.654 305.678,113.200 307.073,113.200 307.260 C 113.200 307.447,113.457 307.600,113.771 307.600 C 114.085 307.600,114.670 308.005,115.071 308.500 C 115.472 308.995,116.475 309.712,117.300 310.094 C 118.125 310.475,118.800 310.952,118.800 311.154 C 118.800 311.356,119.295 311.722,119.900 311.966 C 120.984 312.404,122.781 313.566,124.863 315.177 C 125.448 315.630,126.109 316.000,126.333 316.000 C 126.556 316.000,127.247 316.424,127.869 316.942 C 128.491 317.460,129.659 318.099,130.465 318.361 C 131.270 318.624,132.020 319.074,132.130 319.362 C 132.241 319.651,132.923 320.005,133.646 320.149 C 134.370 320.294,135.330 320.747,135.781 321.157 C 136.231 321.566,137.320 322.126,138.200 322.401 C 139.080 322.676,140.070 323.132,140.400 323.413 C 140.730 323.695,141.720 324.121,142.600 324.359 C 143.480 324.597,144.740 325.153,145.400 325.594 C 146.060 326.034,146.978 326.396,147.440 326.397 C 147.903 326.399,149.077 326.824,150.051 327.341 C 151.024 327.859,152.641 328.405,153.643 328.556 C 154.646 328.706,156.081 329.157,156.833 329.557 C 157.585 329.958,159.323 330.482,160.696 330.722 C 162.069 330.962,163.779 331.427,164.496 331.756 C 165.213 332.084,167.510 332.552,169.599 332.797 C 171.689 333.041,173.927 333.504,174.572 333.826 C 178.126 335.599,214.627 335.615,218.200 333.845 C 218.860 333.518,221.380 333.035,223.800 332.773 C 226.342 332.497,228.471 332.059,228.842 331.738 C 229.196 331.431,230.636 330.987,232.042 330.751 C 233.449 330.516,235.320 329.992,236.200 329.589 C 237.080 329.185,238.657 328.732,239.705 328.581 C 240.752 328.431,242.012 327.992,242.505 327.606 C 242.997 327.220,244.030 326.771,244.800 326.609 C 245.570 326.447,246.740 325.990,247.400 325.593 C 248.060 325.197,249.404 324.659,250.386 324.398 C 251.368 324.137,252.607 323.580,253.140 323.161 C 253.672 322.743,254.409 322.400,254.776 322.400 C 255.144 322.400,256.042 321.959,256.772 321.421 C 257.501 320.882,258.598 320.332,259.208 320.198 C 259.818 320.064,260.624 319.615,261.000 319.200 C 261.376 318.785,262.181 318.336,262.791 318.202 C 263.400 318.068,264.935 316.994,266.203 315.814 L 268.507 313.670 268.323 310.491 C 267.993 304.802,261.651 302.221,256.797 305.802 C 256.085 306.328,255.002 306.868,254.392 307.002 C 253.782 307.136,252.976 307.585,252.600 308.000 C 252.224 308.415,251.351 308.876,250.659 309.024 C 249.966 309.172,249.086 309.624,248.702 310.028 C 248.317 310.432,247.327 310.888,246.502 311.040 C 245.676 311.192,244.577 311.645,244.059 312.047 C 243.542 312.450,242.462 312.899,241.659 313.045 C 240.857 313.191,239.726 313.643,239.146 314.050 C 238.567 314.456,237.128 314.995,235.950 315.248 C 234.772 315.501,233.446 315.940,233.004 316.225 C 232.562 316.509,231.030 316.947,229.600 317.196 C 228.170 317.446,226.280 317.986,225.400 318.395 C 224.456 318.835,222.325 319.254,220.200 319.419 C 218.220 319.573,216.075 319.967,215.433 320.294 C 212.075 322.008,181.611 321.985,177.495 320.266 C 176.763 319.960,174.732 319.577,172.982 319.415 C 171.232 319.252,169.080 318.852,168.200 318.524 C 167.320 318.196,165.349 317.672,163.820 317.358 C 162.291 317.044,160.670 316.545,160.216 316.248 C 159.763 315.951,158.417 315.498,157.226 315.243 C 156.034 314.987,154.506 314.443,153.830 314.032 C 153.153 313.622,151.970 313.155,151.200 312.993 C 150.430 312.832,149.350 312.385,148.800 312.000 C 148.250 311.615,147.223 311.175,146.519 311.022 C 145.814 310.870,144.824 310.426,144.319 310.036 C 143.813 309.647,142.807 309.126,142.081 308.878 C 141.356 308.631,140.297 308.062,139.727 307.614 C 139.158 307.166,138.468 306.800,138.195 306.800 C 137.631 306.800,133.450 304.350,132.416 303.414 C 132.042 303.076,131.612 302.800,131.459 302.800 C 131.161 302.800,127.388 300.334,126.412 299.501 C 126.089 299.226,125.442 298.800,124.974 298.556 C 123.703 297.892,118.000 293.138,118.000 292.743 C 118.000 292.554,117.743 292.400,117.429 292.400 C 117.115 292.400,116.504 291.950,116.071 291.400 C 115.639 290.850,115.159 290.400,115.005 290.400 C 114.546 290.400,109.600 285.310,109.600 284.837 C 109.600 284.597,109.420 284.400,109.200 284.400 C 108.806 284.400,106.768 282.337,104.800 279.946 C 104.250 279.277,103.350 278.207,102.800 277.567 C 98.982 273.125,97.200 270.768,97.200 270.159 C 97.200 269.867,96.840 269.435,96.400 269.200 C 95.960 268.965,95.600 268.533,95.600 268.241 C 95.600 267.949,95.060 267.031,94.400 266.200 C 93.740 265.369,93.200 264.516,93.200 264.303 C 93.200 264.090,92.740 263.369,92.179 262.702 C 91.617 262.034,91.057 260.985,90.934 260.370 C 90.811 259.755,90.479 259.162,90.195 259.054 C 89.912 258.945,89.460 258.168,89.191 257.328 C 88.922 256.488,88.386 255.440,88.000 255.000 C 87.614 254.560,87.087 253.539,86.829 252.732 C 86.570 251.925,86.103 251.052,85.790 250.792 C 85.477 250.532,85.102 249.663,84.957 248.860 C 84.811 248.057,84.288 246.680,83.795 245.800 C 83.301 244.920,82.783 243.582,82.644 242.826 C 82.504 242.071,82.108 241.140,81.763 240.759 C 81.417 240.377,80.924 238.818,80.667 237.294 C 80.410 235.770,79.962 234.236,79.672 233.887 C 79.382 233.537,78.890 231.844,78.580 230.125 C 78.270 228.406,77.760 226.280,77.447 225.400 C 77.135 224.520,76.758 222.540,76.610 221.000 C 76.463 219.460,76.175 217.210,75.972 216.000 C 74.577 207.684,74.309 194.523,75.405 188.233 C 75.737 186.330,76.186 183.025,76.402 180.887 C 76.619 178.749,77.145 175.830,77.571 174.400 C 77.998 172.970,78.532 170.651,78.759 169.248 C 78.985 167.844,79.425 166.404,79.737 166.048 C 80.048 165.691,80.431 164.500,80.589 163.400 C 80.746 162.300,81.308 160.483,81.838 159.361 C 82.367 158.240,82.801 156.980,82.801 156.561 C 82.802 156.143,83.184 155.175,83.649 154.412 C 84.115 153.648,84.751 152.163,85.063 151.112 C 85.376 150.060,85.776 149.200,85.952 149.200 C 86.129 149.200,86.499 148.435,86.775 147.500 C 87.050 146.565,87.597 145.440,87.989 145.000 C 88.381 144.560,88.922 143.512,89.191 142.672 C 89.460 141.832,89.932 141.047,90.240 140.929 C 90.548 140.811,90.801 140.419,90.801 140.057 C 90.803 139.460,91.590 138.067,93.200 135.812 C 93.530 135.350,94.160 134.371,94.600 133.636 C 95.040 132.901,95.805 131.801,96.300 131.192 C 96.795 130.583,97.200 129.925,97.200 129.729 C 97.200 129.534,97.605 128.856,98.100 128.224 C 100.153 125.602,102.015 123.349,102.783 122.558 C 103.232 122.095,103.600 121.514,103.600 121.267 C 103.600 121.020,104.050 120.524,104.600 120.163 C 105.150 119.803,105.600 119.335,105.600 119.123 C 105.600 118.640,108.735 115.600,109.233 115.600 C 109.435 115.600,109.600 115.326,109.600 114.991 C 109.600 114.657,110.035 114.185,110.566 113.943 C 111.097 113.701,111.624 113.151,111.736 112.722 C 111.849 112.292,112.308 111.845,112.757 111.727 C 113.206 111.610,113.679 111.182,113.807 110.777 C 113.936 110.372,114.376 109.935,114.785 109.805 C 115.194 109.675,115.819 109.126,116.173 108.584 C 116.528 108.043,116.986 107.600,117.191 107.600 C 117.396 107.600,117.992 107.195,118.516 106.700 C 119.040 106.205,120.140 105.260,120.960 104.600 C 121.779 103.940,122.664 103.208,122.925 102.973 C 123.186 102.739,123.940 102.207,124.600 101.793 C 125.260 101.378,126.070 100.802,126.400 100.514 C 127.451 99.595,131.167 97.200,131.541 97.200 C 131.740 97.200,132.147 96.905,132.445 96.545 C 132.744 96.185,133.711 95.551,134.594 95.135 C 136.311 94.327,137.756 93.536,140.005 92.168 C 140.778 91.698,141.858 91.174,142.405 91.002 C 142.952 90.830,143.813 90.367,144.319 89.973 C 144.824 89.578,145.814 89.130,146.519 88.978 C 147.223 88.825,148.256 88.378,148.814 87.985 C 149.371 87.591,150.541 87.137,151.414 86.976 C 152.286 86.816,153.416 86.361,153.924 85.965 C 154.433 85.570,155.865 85.036,157.108 84.778 C 158.351 84.520,159.749 84.059,160.215 83.753 C 160.681 83.448,162.128 83.009,163.431 82.777 C 164.734 82.546,166.424 82.069,167.186 81.719 C 167.948 81.368,170.378 80.856,172.586 80.582 C 174.794 80.307,177.500 79.787,178.600 79.427 C 182.856 78.031,212.583 78.199,215.264 79.634 C 215.736 79.887,218.120 80.353,220.561 80.670 C 223.003 80.988,225.375 81.491,225.833 81.789 C 226.292 82.087,227.552 82.455,228.633 82.607 C 229.715 82.758,231.534 83.314,232.675 83.841 C 233.817 84.369,235.185 84.800,235.716 84.800 C 236.247 84.800,237.474 85.222,238.444 85.737 C 239.413 86.253,240.862 86.798,241.663 86.948 C 242.464 87.098,243.552 87.561,244.081 87.978 C 244.610 88.394,245.722 88.862,246.553 89.018 C 247.383 89.173,248.364 89.617,248.731 90.004 C 249.099 90.390,249.966 90.828,250.659 90.976 C 251.351 91.124,252.224 91.585,252.600 92.000 C 252.976 92.415,253.782 92.864,254.392 92.998 C 255.002 93.132,256.099 93.682,256.828 94.221 C 257.558 94.759,258.364 95.200,258.619 95.200 C 258.874 95.200,259.554 95.636,260.129 96.169 C 260.704 96.702,261.516 97.246,261.934 97.379 C 262.352 97.512,263.016 97.976,263.409 98.410 C 263.802 98.845,264.328 99.200,264.577 99.200 C 264.826 99.200,265.653 99.733,266.415 100.384 C 267.177 101.035,267.974 101.575,268.186 101.584 C 268.398 101.593,268.938 101.960,269.386 102.401 C 270.143 103.146,272.239 104.857,274.933 106.929 C 275.875 107.653,277.734 109.376,283.296 114.681 C 283.573 114.945,284.020 115.395,284.289 115.681 C 284.558 115.966,284.957 116.380,285.176 116.600 C 286.335 117.766,288.320 120.027,289.200 121.186 C 289.750 121.910,291.112 123.604,292.227 124.951 C 293.342 126.298,294.372 127.715,294.515 128.100 C 294.658 128.485,294.956 128.800,295.177 128.800 C 295.399 128.800,295.942 129.594,296.384 130.565 C 296.826 131.535,297.333 132.390,297.510 132.465 C 297.687 132.539,298.185 133.162,298.616 133.850 C 300.704 137.177,301.617 138.308,302.949 139.215 C 303.744 139.757,304.396 140.335,304.397 140.500 C 304.399 140.665,305.540 140.800,306.933 140.800 C 309.526 140.800,310.809 140.026,313.100 137.077 C 314.463 135.323,312.883 129.095,310.594 127.195 C 310.267 126.924,310.000 126.479,310.000 126.206 C 310.000 125.933,309.460 125.031,308.800 124.200 C 308.140 123.369,307.600 122.445,307.600 122.145 C 307.600 121.845,307.430 121.600,307.221 121.600 C 307.013 121.600,306.194 120.623,305.401 119.428 C 304.609 118.234,303.339 116.579,302.580 115.750 C 301.821 114.922,301.200 114.009,301.200 113.722 C 301.200 113.435,300.924 113.200,300.587 113.200 C 300.251 113.200,299.864 112.885,299.729 112.500 C 299.397 111.553,298.985 111.109,291.934 104.114 C 283.859 96.102,284.177 96.400,283.704 96.400 C 283.477 96.400,282.997 95.950,282.637 95.400 C 282.276 94.850,281.725 94.400,281.411 94.400 C 281.097 94.400,280.696 94.151,280.520 93.846 C 280.164 93.229,276.985 90.741,275.620 90.011 C 275.136 89.751,274.438 89.271,274.070 88.944 C 272.960 87.956,270.680 86.472,269.300 85.838 C 268.585 85.509,268.000 85.064,268.000 84.847 C 268.000 84.631,267.595 84.331,267.100 84.181 C 266.605 84.030,265.640 83.488,264.955 82.975 C 264.270 82.462,263.253 81.928,262.694 81.788 C 262.136 81.648,261.343 81.220,260.933 80.838 C 260.523 80.456,259.597 79.938,258.875 79.686 C 258.153 79.434,257.097 78.862,256.527 78.414 C 255.958 77.966,255.201 77.599,254.846 77.598 C 254.491 77.597,253.480 77.152,252.600 76.610 C 251.720 76.068,250.712 75.619,250.360 75.612 C 250.007 75.606,248.912 75.171,247.925 74.646 C 246.939 74.122,245.540 73.562,244.816 73.404 C 244.093 73.245,242.938 72.791,242.251 72.395 C 241.563 72.000,240.190 71.554,239.200 71.404 C 238.210 71.254,236.747 70.802,235.949 70.398 C 235.151 69.994,233.621 69.538,232.549 69.385 C 231.477 69.231,229.790 68.776,228.800 68.372 C 227.810 67.969,225.314 67.444,223.253 67.206 C 221.193 66.967,219.012 66.516,218.407 66.204 C 216.109 65.015,195.430 64.455,181.398 65.201 M186.833 107.816 C 185.641 108.106,182.776 108.547,180.467 108.796 C 178.157 109.045,175.785 109.498,175.194 109.803 C 174.604 110.108,172.879 110.575,171.361 110.841 C 169.842 111.107,168.060 111.642,167.400 112.029 C 166.740 112.416,165.480 112.862,164.600 113.020 C 163.720 113.178,162.280 113.716,161.400 114.215 C 160.520 114.713,159.227 115.241,158.528 115.386 C 157.828 115.532,157.048 115.901,156.796 116.205 C 156.543 116.510,155.675 116.970,154.868 117.229 C 154.061 117.487,153.040 118.016,152.600 118.403 C 152.160 118.791,151.350 119.240,150.800 119.401 C 150.250 119.563,149.497 119.960,149.128 120.284 C 148.758 120.609,147.931 121.172,147.290 121.537 C 144.757 122.979,143.452 123.839,142.489 124.700 C 141.936 125.195,141.305 125.600,141.087 125.600 C 140.870 125.600,140.302 126.005,139.825 126.500 C 139.348 126.995,138.269 127.940,137.427 128.600 C 134.841 130.627,127.034 138.464,125.074 141.000 C 124.054 142.320,122.847 143.850,122.392 144.400 C 120.566 146.606,119.200 148.531,119.200 148.897 C 119.200 149.110,118.750 149.819,118.200 150.473 C 117.650 151.127,117.200 151.873,117.200 152.131 C 117.199 152.389,116.749 153.123,116.200 153.762 C 115.650 154.401,115.200 155.221,115.200 155.585 C 115.200 155.948,114.759 156.842,114.221 157.572 C 113.682 158.301,113.131 159.404,112.995 160.022 C 112.860 160.639,112.499 161.352,112.193 161.606 C 111.887 161.859,111.343 163.087,110.983 164.334 C 110.623 165.580,110.095 166.870,109.809 167.200 C 109.524 167.530,109.090 168.754,108.845 169.920 C 108.600 171.086,108.137 172.548,107.816 173.170 C 107.494 173.791,107.037 175.515,106.800 177.000 C 106.563 178.486,106.115 180.308,105.805 181.049 C 103.821 185.797,103.801 213.798,105.777 218.495 C 106.124 219.318,106.600 221.388,106.836 223.095 C 107.072 224.803,107.521 226.484,107.832 226.831 C 108.144 227.178,108.606 228.528,108.858 229.831 C 109.110 231.134,109.543 232.470,109.819 232.800 C 110.095 233.130,110.553 234.210,110.836 235.200 C 111.120 236.190,111.665 237.413,112.048 237.919 C 112.431 238.424,112.867 239.414,113.016 240.119 C 113.165 240.823,113.718 241.973,114.244 242.673 C 114.770 243.374,115.200 244.151,115.200 244.400 C 115.200 244.649,115.629 245.426,116.154 246.127 C 116.678 246.827,117.223 247.781,117.364 248.247 C 117.505 248.713,117.976 249.416,118.410 249.809 C 118.845 250.202,119.200 250.737,119.200 250.998 C 119.200 251.617,120.562 253.450,125.274 259.170 C 129.541 264.350,133.675 268.508,137.234 271.200 C 137.961 271.750,139.043 272.695,139.638 273.300 C 140.234 273.905,140.887 274.400,141.091 274.400 C 141.294 274.400,141.883 274.850,142.400 275.400 C 142.917 275.950,143.564 276.400,143.839 276.400 C 144.114 276.400,144.847 276.825,145.469 277.345 C 146.091 277.865,146.981 278.410,147.447 278.555 C 147.913 278.701,148.616 279.176,149.009 279.610 C 149.402 280.045,149.941 280.400,150.206 280.400 C 150.471 280.400,151.307 280.820,152.062 281.332 C 152.818 281.845,154.046 282.477,154.792 282.737 C 155.538 282.997,156.430 283.455,156.774 283.754 C 157.118 284.054,158.120 284.523,159.000 284.798 C 159.880 285.072,161.161 285.635,161.847 286.049 C 162.533 286.462,163.448 286.800,163.879 286.800 C 164.311 286.800,165.508 287.227,166.540 287.749 C 167.571 288.272,169.357 288.824,170.508 288.976 C 171.658 289.128,173.380 289.597,174.333 290.019 C 175.287 290.440,177.267 290.896,178.733 291.032 C 180.200 291.168,183.366 291.621,185.770 292.040 C 191.247 292.993,201.879 293.091,205.675 292.223 C 207.064 291.906,210.090 291.448,212.400 291.205 C 214.710 290.963,217.140 290.518,217.800 290.217 C 218.460 289.916,220.170 289.459,221.600 289.202 C 223.030 288.945,224.830 288.405,225.600 288.002 C 226.370 287.598,227.720 287.146,228.600 286.997 C 229.480 286.847,230.677 286.390,231.260 285.980 C 231.843 285.571,232.813 285.112,233.417 284.960 C 234.370 284.721,237.202 283.336,241.400 281.057 C 242.060 280.698,242.825 280.404,243.100 280.402 C 243.375 280.401,243.600 280.210,243.600 279.978 C 243.600 279.745,244.391 279.205,245.357 278.778 C 246.324 278.350,247.218 277.730,247.345 277.400 C 247.471 277.070,247.834 276.800,248.150 276.800 C 248.466 276.800,249.478 276.170,250.400 275.400 C 251.322 274.630,252.230 274.000,252.420 274.000 C 252.609 274.000,253.200 273.595,253.733 273.100 C 254.266 272.605,255.639 271.390,256.783 270.400 C 259.352 268.178,263.542 264.001,266.200 261.012 C 267.300 259.775,268.605 258.346,269.100 257.836 C 269.595 257.326,270.003 256.749,270.006 256.554 C 270.010 256.359,270.505 255.630,271.106 254.934 C 272.169 253.703,273.223 252.108,274.352 250.020 C 274.655 249.459,275.211 248.640,275.586 248.200 C 279.534 243.575,277.839 236.662,272.548 235.811 C 268.733 235.198,265.609 237.284,262.889 242.259 C 261.653 244.519,259.999 246.800,259.595 246.800 C 259.378 246.800,259.200 247.051,259.200 247.357 C 259.200 248.910,247.158 261.242,243.869 263.056 C 243.415 263.307,242.673 263.804,242.221 264.160 C 241.770 264.516,240.831 265.258,240.136 265.809 C 239.440 266.360,238.256 267.068,237.504 267.382 C 236.752 267.697,235.913 268.223,235.641 268.551 C 235.368 268.880,234.636 269.260,234.014 269.397 C 233.392 269.534,232.583 269.977,232.215 270.383 C 231.848 270.789,230.894 271.243,230.095 271.393 C 229.296 271.543,228.210 272.006,227.681 272.422 C 227.152 272.839,226.064 273.302,225.263 273.452 C 224.462 273.602,223.013 274.147,222.044 274.663 C 221.074 275.178,219.774 275.600,219.155 275.600 C 218.536 275.600,217.078 275.976,215.915 276.436 C 214.744 276.899,211.657 277.520,209.000 277.828 C 206.360 278.133,203.120 278.584,201.800 278.830 C 199.074 279.338,190.069 279.078,188.200 278.437 C 187.540 278.211,185.200 277.869,182.999 277.679 C 180.784 277.486,178.364 277.031,177.578 276.658 C 176.797 276.287,175.121 275.815,173.853 275.609 C 172.586 275.402,170.975 274.888,170.274 274.465 C 169.573 274.043,168.343 273.581,167.541 273.438 C 166.738 273.296,165.658 272.847,165.141 272.442 C 164.623 272.036,163.639 271.582,162.954 271.432 C 162.269 271.283,161.355 270.831,160.923 270.429 C 160.492 270.027,159.702 269.568,159.169 269.409 C 158.274 269.142,157.308 268.585,154.240 266.564 C 153.601 266.144,152.523 265.464,151.843 265.054 C 151.162 264.644,150.065 263.871,149.403 263.337 C 148.741 262.803,147.786 262.059,147.279 261.683 C 146.125 260.827,141.802 256.890,140.511 255.519 C 139.293 254.226,138.932 253.860,137.900 252.873 C 137.295 252.295,136.800 251.712,136.800 251.577 C 136.800 251.443,136.063 250.538,135.162 249.567 C 134.261 248.595,133.177 247.125,132.754 246.300 C 132.330 245.475,131.820 244.800,131.619 244.800 C 131.418 244.800,131.145 244.456,131.011 244.035 C 130.878 243.614,130.235 242.600,129.584 241.780 C 128.933 240.961,128.400 239.977,128.400 239.594 C 128.400 239.211,128.141 238.683,127.824 238.420 C 127.098 237.817,124.634 232.997,124.237 231.400 C 124.072 230.740,123.692 229.927,123.391 229.594 C 123.091 229.260,122.647 228.090,122.404 226.994 C 122.161 225.897,121.617 224.280,121.195 223.400 C 120.773 222.520,120.304 220.720,120.152 219.400 C 120.000 218.080,119.624 216.612,119.317 216.139 C 117.482 213.307,117.541 187.088,119.391 183.625 C 119.692 183.061,120.140 181.255,120.388 179.611 C 120.635 177.967,121.078 176.347,121.373 176.011 C 121.668 175.675,122.116 174.417,122.369 173.216 C 122.621 172.015,123.075 170.755,123.377 170.416 C 123.678 170.077,124.124 169.056,124.366 168.147 C 124.608 167.237,125.065 166.278,125.382 166.015 C 125.700 165.751,126.170 164.875,126.429 164.068 C 126.687 163.261,127.199 162.240,127.566 161.800 C 127.933 161.360,128.538 160.325,128.910 159.500 C 129.282 158.675,129.750 158.000,129.950 158.000 C 130.150 158.000,130.419 157.580,130.548 157.066 C 130.676 156.553,131.320 155.428,131.977 154.566 C 132.635 153.705,133.494 152.566,133.886 152.036 C 134.279 151.506,135.095 150.547,135.700 149.905 C 136.305 149.263,136.800 148.639,136.800 148.517 C 136.800 148.334,139.499 145.464,141.517 143.503 C 141.801 143.226,142.506 142.505,143.083 141.900 C 143.660 141.295,144.372 140.800,144.666 140.800 C 144.960 140.800,145.200 140.526,145.200 140.190 C 145.200 139.855,145.635 139.415,146.168 139.212 C 146.700 139.010,147.300 138.551,147.500 138.193 C 147.701 137.834,148.225 137.329,148.666 137.071 C 149.107 136.812,150.515 135.880,151.795 135.000 C 155.283 132.603,159.134 130.406,159.857 130.402 C 160.109 130.401,160.414 130.140,160.536 129.822 C 160.658 129.505,161.532 129.022,162.479 128.750 C 163.425 128.478,164.680 127.926,165.266 127.524 C 165.853 127.122,166.933 126.679,167.666 126.539 C 168.400 126.399,169.678 125.945,170.507 125.531 C 171.336 125.116,172.956 124.599,174.107 124.383 C 175.258 124.166,176.774 123.718,177.476 123.387 C 178.178 123.056,180.968 122.525,183.676 122.208 C 186.384 121.890,189.590 121.456,190.800 121.244 C 193.560 120.760,199.053 120.754,202.200 121.232 C 203.520 121.432,206.844 121.871,209.586 122.208 C 212.328 122.545,214.967 123.079,215.449 123.396 C 215.932 123.712,217.434 124.149,218.786 124.367 C 220.139 124.585,221.820 125.109,222.523 125.533 C 223.225 125.956,224.520 126.430,225.400 126.585 C 226.280 126.741,227.279 127.118,227.620 127.423 C 227.961 127.729,229.032 128.258,230.000 128.600 C 230.968 128.942,232.039 129.473,232.380 129.780 C 234.425 131.623,243.200 131.647,243.200 129.809 C 243.200 129.542,243.556 129.001,243.992 128.607 C 245.533 127.213,245.524 123.012,243.978 121.688 C 243.550 121.322,243.200 120.818,243.200 120.568 C 243.200 120.030,238.741 117.200,237.894 117.200 C 237.571 117.200,236.840 116.832,236.269 116.383 C 235.698 115.934,234.345 115.303,233.263 114.982 C 232.181 114.660,231.072 114.128,230.799 113.799 C 230.526 113.469,229.815 113.200,229.219 113.200 C 228.623 113.200,227.274 112.764,226.222 112.231 C 225.170 111.698,223.384 111.143,222.254 110.997 C 221.124 110.852,219.480 110.399,218.600 109.991 C 217.720 109.583,215.650 109.127,214.000 108.977 C 212.350 108.828,209.120 108.367,206.823 107.953 C 201.791 107.046,190.318 106.967,186.833 107.816 "
            stroke="none" fill="#F8F8F8" fill-rule="evenodd"></path>
        <path
            d="M190.000 145.664 C 184.478 146.128,174.172 149.263,171.651 151.245 C 171.124 151.660,170.531 152.000,170.334 152.000 C 167.113 152.000,152.367 165.828,149.824 171.231 C 149.470 171.984,148.537 173.770,147.751 175.200 C 140.195 188.942,139.862 211.061,147.022 223.619 C 147.455 224.379,148.118 225.540,148.495 226.200 C 148.872 226.860,149.532 228.120,149.962 229.000 C 152.062 233.295,161.831 243.221,166.800 246.109 C 170.822 248.446,172.188 249.193,173.600 249.824 C 174.370 250.168,175.540 250.693,176.200 250.989 C 176.860 251.285,178.210 251.736,179.200 251.990 C 180.190 252.244,181.900 252.781,183.000 253.183 C 187.851 254.955,204.682 255.048,209.400 253.328 C 210.280 253.007,212.170 252.417,213.600 252.017 C 222.022 249.661,232.743 242.374,238.600 235.025 C 239.260 234.197,239.989 233.312,240.219 233.060 C 240.784 232.440,243.365 228.456,244.050 227.148 C 252.829 210.359,253.593 191.598,246.091 177.000 C 245.300 175.460,244.281 173.480,243.826 172.600 C 242.780 170.574,241.711 168.934,240.418 167.369 C 239.858 166.693,238.919 165.523,238.330 164.769 C 232.845 157.748,221.267 149.892,213.600 147.989 C 212.610 147.743,210.810 147.204,209.600 146.792 C 208.379 146.376,205.126 145.855,202.292 145.621 C 196.640 145.155,196.032 145.157,190.000 145.664 M201.480 159.818 C 204.236 160.157,207.235 160.708,208.145 161.042 C 209.055 161.376,210.430 161.837,211.200 162.067 C 216.073 163.522,223.996 169.429,228.284 174.804 C 244.192 194.743,237.840 224.098,214.995 236.217 C 213.636 236.938,211.911 237.713,211.162 237.940 C 210.413 238.166,209.053 238.625,208.140 238.960 C 202.668 240.967,190.069 240.958,184.624 238.943 C 183.731 238.612,182.280 238.100,181.400 237.805 C 180.520 237.509,178.720 236.681,177.400 235.964 C 156.668 224.700,149.923 199.710,161.917 178.597 C 167.485 168.795,179.064 161.346,191.138 159.799 C 196.388 159.127,195.866 159.126,201.480 159.818 "
            stroke="none" fill="#21BFC2" fill-rule="evenodd"></path>
    </g>
</svg>
